<svg width="22" height="22" viewBox="0 0 22 22" fill="none" xmlns="http://www.w3.org/2000/svg">
<path d="M5.49999 17.4168H8.24999V12.8335C8.24999 12.5738 8.33799 12.3562 8.51399 12.1808C8.68999 12.0054 8.90755 11.9174 9.16666 11.9168H12.8333C13.093 11.9168 13.3109 12.0048 13.4869 12.1808C13.6629 12.3568 13.7506 12.5744 13.75 12.8335V17.4168H16.5V9.16683L11 5.04183L5.49999 9.16683V17.4168ZM3.66666 17.4168V9.16683C3.66666 8.87655 3.73174 8.60155 3.86191 8.34183C3.99207 8.08211 4.17143 7.86822 4.39999 7.70016L9.89999 3.57516C10.2208 3.33072 10.5875 3.2085 11 3.2085C11.4125 3.2085 11.7792 3.33072 12.1 3.57516L17.6 7.70016C17.8292 7.86822 18.0088 8.08211 18.139 8.34183C18.2692 8.60155 18.3339 8.87655 18.3333 9.16683V17.4168C18.3333 17.921 18.1537 18.3527 17.7943 18.7121C17.435 19.0714 17.0035 19.2508 16.5 19.2502H12.8333C12.5736 19.2502 12.356 19.1622 12.1807 18.9862C12.0053 18.8102 11.9173 18.5926 11.9167 18.3335V13.7502H10.0833V18.3335C10.0833 18.5932 9.99532 18.8111 9.81932 18.9871C9.64332 19.1631 9.42577 19.2508 9.16666 19.2502H5.49999C4.99582 19.2502 4.56438 19.0708 4.20566 18.7121C3.84693 18.3534 3.66727 17.9216 3.66666 17.4168Z" fill="black"/>
</svg>
