<svg width="39" height="39" viewBox="0 0 39 39" fill="none" xmlns="http://www.w3.org/2000/svg">
<rect width="39" height="39" rx="15" fill="#FFD666"/>
<path d="M15.75 22.3125C15.3125 22.3125 14.9425 22.1612 14.64 21.8587C14.3375 21.5562 14.1867 21.1867 14.1875 20.75C14.1883 20.3133 14.3396 19.9433 14.6412 19.64C14.9429 19.3367 15.3125 19.1858 15.75 19.1875C16.1875 19.1892 16.5575 19.3404 16.86 19.6412C17.1625 19.9421 17.3133 20.3117 17.3125 20.75C17.3117 21.1883 17.1604 21.5583 16.8587 21.86C16.5571 22.1617 16.1875 22.3125 15.75 22.3125ZM23.25 22.3125C22.8125 22.3125 22.4425 22.1612 22.14 21.8587C21.8375 21.5562 21.6867 21.1867 21.6875 20.75C21.6883 20.3133 21.8396 19.9433 22.1412 19.64C22.4429 19.3367 22.8125 19.1858 23.25 19.1875C23.6875 19.1892 24.0575 19.3404 24.36 19.6412C24.6625 19.9421 24.8133 20.3117 24.8125 20.75C24.8117 21.1883 24.6604 21.5583 24.3587 21.86C24.0571 22.1617 23.6875 22.3125 23.25 22.3125ZM19.5 29.5C22.2917 29.5 24.6562 28.5312 26.5937 26.5937C28.5312 24.6562 29.5 22.2917 29.5 19.5C29.5 19 29.4687 18.5158 29.4062 18.0475C29.3437 17.5792 29.2292 17.1258 29.0625 16.6875C28.625 16.7917 28.1875 16.87 27.75 16.9225C27.3125 16.975 26.8542 17.0008 26.375 17C24.4792 17 22.6875 16.5937 21 15.7812C19.3125 14.9687 17.875 13.8333 16.6875 12.375C16.0208 14 15.0679 15.4117 13.8287 16.61C12.5896 17.8083 11.1467 18.7092 9.5 19.3125V19.5C9.5 22.2917 10.4687 24.6562 12.4062 26.5937C14.3437 28.5312 16.7083 29.5 19.5 29.5ZM19.5 32C17.7708 32 16.1458 31.6721 14.625 31.0162C13.1042 30.3604 11.7812 29.4696 10.6562 28.3437C9.53125 27.2179 8.64083 25.895 7.985 24.375C7.32917 22.855 7.00083 21.23 7 19.5C6.99917 17.77 7.3275 16.145 7.985 14.625C8.6425 13.105 9.53292 11.7821 10.6562 10.6563C11.7796 9.53042 13.1025 8.64 14.625 7.98501C16.1475 7.33001 17.7725 7.00167 19.5 7.00001C21.2275 6.99834 22.8525 7.32667 24.375 7.98501C25.8975 8.64334 27.2204 9.53375 28.3437 10.6563C29.4671 11.7788 30.3579 13.1017 31.0162 14.625C31.6746 16.1483 32.0025 17.7733 32 19.5C31.9975 21.2267 31.6692 22.8517 31.015 24.375C30.3608 25.8983 29.4704 27.2212 28.3437 28.3437C27.2171 29.4662 25.8942 30.3571 24.375 31.0162C22.8558 31.6754 21.2308 32.0033 19.5 32Z" fill="black"/>
</svg>
