<svg width="22" height="22" viewBox="0 0 22 22" fill="none" xmlns="http://www.w3.org/2000/svg">
<g clip-path="url(#clip0_220_1083)">
<path d="M15.5833 5.0415C15.2187 5.0415 14.8689 5.18637 14.6111 5.44423C14.3532 5.70209 14.2083 6.05183 14.2083 6.4165C14.2083 6.78118 14.3532 7.13091 14.6111 7.38878C14.8689 7.64664 15.2187 7.7915 15.5833 7.7915H15.9307L12.8333 10.8889L9.67999 7.73559C9.42218 7.47809 9.0727 7.33346 8.70833 7.33346C8.34395 7.33346 7.99447 7.47809 7.73666 7.73559L1.77833 13.6939C1.52773 13.9531 1.38898 14.3004 1.39194 14.6609C1.3949 15.0214 1.53934 15.3664 1.79416 15.6214C2.04898 15.8765 2.39378 16.0213 2.7543 16.0246C3.11482 16.0279 3.46221 15.8894 3.72166 15.6391L8.70833 10.6524L11.8617 13.8058C12.1195 14.0632 12.469 14.2079 12.8333 14.2079C13.1977 14.2079 13.5472 14.0632 13.805 13.8058L17.875 9.73575V10.0832C17.875 10.4478 18.0199 10.7976 18.2777 11.0554C18.5356 11.3133 18.8853 11.4582 19.25 11.4582C19.6147 11.4582 19.9644 11.3133 20.2223 11.0554C20.4801 10.7976 20.625 10.4478 20.625 10.0832V6.4165C20.625 6.05183 20.4801 5.70209 20.2223 5.44423C19.9644 5.18637 19.6147 5.0415 19.25 5.0415H15.5833Z" fill="black"/>
</g>
<defs>
<clipPath id="clip0_220_1083">
<rect width="22" height="22" fill="white"/>
</clipPath>
</defs>
</svg>
