<svg width="47" height="47" viewBox="0 0 47 47" fill="none" xmlns="http://www.w3.org/2000/svg">
<path d="M16.45 22.3263C16.45 22.0147 16.5737 21.7158 16.7941 21.4954C17.0145 21.2751 17.3133 21.1513 17.625 21.1513H29.375C29.6866 21.1513 29.9854 21.2751 30.2058 21.4954C30.4262 21.7158 30.55 22.0147 30.55 22.3263V35.2513C30.55 37.1211 29.8072 38.9143 28.4851 40.2364C27.1629 41.5585 25.3697 42.3013 23.5 42.3013C21.6302 42.3013 19.837 41.5585 18.5148 40.2364C17.1927 38.9143 16.45 37.1211 16.45 35.2513V22.3263ZM18.8 17.6263H28.2V7.05129C28.2001 6.65067 28.0979 6.25666 27.903 5.90667C27.708 5.55668 27.4268 5.26234 27.0861 5.0516C26.7454 4.84086 26.3565 4.72073 25.9563 4.7026C25.5561 4.68448 25.1579 4.76896 24.7995 4.94804L20.0995 7.29804C19.7089 7.49325 19.3803 7.79345 19.1508 8.16495C18.9212 8.53646 18.7997 8.96459 18.8 9.40129V17.6263Z" fill="black"/>
</svg>
