<svg width="20" height="20" viewBox="0 0 20 20" fill="none" xmlns="http://www.w3.org/2000/svg">
<path d="M11 2C11.1516 2 11.2969 2.05926 11.4041 2.16475C11.5112 2.27024 11.5714 2.41332 11.5714 2.5625V4.25H12.7143C13.1689 4.25 13.605 4.42779 13.9265 4.74426C14.248 5.06072 14.4286 5.48995 14.4286 5.9375V9.875H17.2857C17.7404 9.875 18.1764 10.0528 18.4979 10.3693C18.8194 10.6857 19 11.1149 19 11.5625V18.3125C19 18.7601 18.8194 19.1893 18.4979 19.5057C18.1764 19.8222 17.7404 20 17.2857 20H4.71429C4.25963 20 3.82359 19.8222 3.5021 19.5057C3.18061 19.1893 3 18.7601 3 18.3125V11.3555C3.00002 11.0642 3.07665 10.7778 3.22245 10.5243C3.36825 10.2707 3.57825 10.0587 3.832 9.90875L7.26057 7.88375C7.35894 7.82485 7.46308 7.77585 7.57143 7.7375V5.9375C7.57143 5.48995 7.75204 5.06072 8.07353 4.74426C8.39502 4.42779 8.83106 4.25 9.28571 4.25H10.4286V2.5625C10.4286 2.41332 10.4888 2.27024 10.5959 2.16475C10.7031 2.05926 10.8484 2 11 2ZM8.71429 7.73975C9.35771 7.96475 9.85714 8.561 9.85714 9.3305V18.875H12.1429V11.5625C12.1427 11.2134 12.2525 10.8728 12.4572 10.5877C12.6619 10.3026 12.9513 10.087 13.2857 9.97062V5.93862C13.2857 5.78944 13.2255 5.64637 13.1183 5.54088C13.0112 5.43539 12.8658 5.37612 12.7143 5.37612H9.28571C9.13416 5.37612 8.98882 5.43539 8.88165 5.54088C8.77449 5.64637 8.71429 5.78944 8.71429 5.93862V7.73975ZM13.8571 11C13.7056 11 13.5602 11.0593 13.4531 11.1648C13.3459 11.2702 13.2857 11.4133 13.2857 11.5625V18.875H17.2857C17.4373 18.875 17.5826 18.8157 17.6898 18.7102C17.7969 18.6048 17.8571 18.4617 17.8571 18.3125V11.5625C17.8571 11.4133 17.7969 11.2702 17.6898 11.1648C17.5826 11.0593 17.4373 11 17.2857 11H13.8571ZM7.84914 8.84787L4.42057 10.8729C4.3357 10.9229 4.26548 10.9938 4.2168 11.0786C4.16812 11.1634 4.14264 11.2592 4.14286 11.3566V18.3125C4.14286 18.4617 4.20306 18.6048 4.31022 18.7102C4.41739 18.8157 4.56273 18.875 4.71429 18.875H8.71429V9.3305C8.71431 9.23098 8.6875 9.13323 8.63661 9.04723C8.58572 8.96124 8.51256 8.89007 8.4246 8.841C8.33664 8.79193 8.23702 8.76672 8.13593 8.76792C8.03483 8.76913 7.93587 8.79672 7.84914 8.84787Z" fill="black"/>
</svg>
