<svg width="24" height="24" viewBox="0 0 24 24" fill="none" xmlns="http://www.w3.org/2000/svg">
<path d="M11.5 20C13.1811 20 14.8245 19.5015 16.2223 18.5675C17.6202 17.6335 18.7096 16.306 19.353 14.7528C19.9963 13.1996 20.1646 11.4906 19.8367 9.84174C19.5087 8.1929 18.6991 6.67834 17.5104 5.4896C16.3217 4.30085 14.8071 3.4913 13.1583 3.16333C11.5094 2.83535 9.80036 3.00368 8.24719 3.64703C6.69402 4.29037 5.3665 5.37984 4.43251 6.77766C3.49852 8.17547 3 9.81886 3 11.5C3 12.9053 3.34 14.2304 3.94444 15.3977L3 20L7.60228 19.0556C8.76961 19.66 10.0956 20 11.5 20Z" stroke="black" stroke-width="2" stroke-linecap="round" stroke-linejoin="round"/>
</svg>
