<svg width="48" height="48" viewBox="0 0 48 48" fill="none" xmlns="http://www.w3.org/2000/svg">
<path d="M7.1999 28.8002C9.85087 28.8002 11.9999 26.6512 11.9999 24.0002C11.9999 21.3492 9.85087 19.2002 7.1999 19.2002C4.54894 19.2002 2.3999 21.3492 2.3999 24.0002C2.3999 26.6512 4.54894 28.8002 7.1999 28.8002Z" fill="black"/>
<path d="M24 28.8002C26.6509 28.8002 28.8 26.6512 28.8 24.0002C28.8 21.3492 26.6509 19.2002 24 19.2002C21.349 19.2002 19.2 21.3492 19.2 24.0002C19.2 26.6512 21.349 28.8002 24 28.8002Z" fill="black"/>
<path d="M40.8 28.8002C43.451 28.8002 45.6 26.6512 45.6 24.0002C45.6 21.3492 43.451 19.2002 40.8 19.2002C38.149 19.2002 36 21.3492 36 24.0002C36 26.6512 38.149 28.8002 40.8 28.8002Z" fill="black"/>
</svg>
