<svg width="47" height="47" viewBox="0 0 47 47" fill="none" xmlns="http://www.w3.org/2000/svg">
<path d="M23.4999 10.2815C22.9436 10.2813 22.3987 10.4392 21.9286 10.7367C21.4585 11.0341 21.0825 11.4589 20.8444 11.9617C20.5885 12.4805 20.1387 12.8778 19.5924 13.0678C19.046 13.2578 18.4468 13.2253 17.9242 12.9773C17.4016 12.7293 16.9975 12.2857 16.7991 11.7423C16.6008 11.1989 16.6241 10.5993 16.8641 10.0729C17.3555 9.03727 18.0826 8.13105 18.9871 7.42679C19.8916 6.72253 20.9483 6.23979 22.0728 6.01721C23.1974 5.79463 24.3584 5.83838 25.4629 6.14497C26.5675 6.45156 27.5849 7.01248 28.4338 7.78282C29.2827 8.55315 29.9395 9.51152 30.3516 10.5812C30.7637 11.6509 30.9196 12.8022 30.807 13.943C30.6943 15.0838 30.3161 16.1823 29.7028 17.1507C29.0894 18.1192 28.2578 18.9305 27.2746 19.5199C26.8044 19.7891 26.3784 20.1289 26.0115 20.5275C25.7354 20.8506 25.703 21.0445 25.703 21.1326C25.703 21.3382 25.8147 21.5321 25.9968 21.632L41.0015 29.9686C42.1556 30.6083 43.0643 31.6133 43.5849 32.8257C44.1055 34.0381 44.2085 35.3892 43.8775 36.6665C43.5466 37.9438 42.8006 39.0749 41.7568 39.882C40.713 40.6891 39.4305 41.1264 38.111 41.1252H8.87705C7.55927 41.1247 6.27894 40.6869 5.23682 39.8803C4.1947 39.0738 3.44974 37.9442 3.11876 36.6686C2.78778 35.3931 2.8895 34.0438 3.40797 32.8323C3.92645 31.6208 4.83235 30.6157 5.98361 29.9745L17.29 23.6882C17.5434 23.5395 17.8239 23.4429 18.1151 23.4042C18.4063 23.3655 18.7023 23.3854 18.9857 23.4627C19.2691 23.5401 19.5342 23.6734 19.7653 23.8547C19.9964 24.036 20.189 24.2617 20.3316 24.5185C20.4742 24.7754 20.564 25.0581 20.5957 25.3502C20.6275 25.6422 20.6005 25.9377 20.5163 26.2191C20.4322 26.5006 20.2926 26.7624 20.1058 26.9891C19.919 27.2158 19.6887 27.4029 19.4285 27.5393L8.12505 33.8255C7.82453 33.9908 7.58768 34.2516 7.45197 34.5666C7.31625 34.8815 7.28941 35.2328 7.37568 35.5647C7.46195 35.8967 7.65642 36.1904 7.92833 36.3994C8.20024 36.6085 8.53407 36.7209 8.87705 36.719H38.111C38.4537 36.7196 38.7868 36.6062 39.058 36.3968C39.3292 36.1874 39.5231 35.8938 39.6092 35.5621C39.6953 35.2305 39.6688 34.8796 39.5337 34.5647C39.3986 34.2498 39.1627 33.9888 38.863 33.8226L23.8524 25.483C23.0784 25.0507 22.4335 24.4201 21.9838 23.6561C21.5342 22.8921 21.296 22.0221 21.2939 21.1355C21.2939 19.6932 21.9254 18.527 22.6451 17.6781C23.3501 16.8409 24.2314 16.2035 25.0039 15.7393C25.555 15.4095 25.9827 14.9081 26.2217 14.3119C26.4606 13.7158 26.4976 13.0578 26.327 12.4386C26.1564 11.8194 25.7876 11.2732 25.277 10.8836C24.7664 10.494 24.1422 10.2825 23.4999 10.2815Z" fill="black"/>
</svg>
