<svg width="48" height="47" viewBox="0 0 48 47" fill="none" xmlns="http://www.w3.org/2000/svg">
<path fill-rule="evenodd" clip-rule="evenodd" d="M24 39.6562C28.3761 39.6562 32.5729 37.9541 35.6673 34.9242C38.7616 31.8943 40.5 27.7849 40.5 23.5C40.5 19.2151 38.7616 15.1057 35.6673 12.0758C32.5729 9.04592 28.3761 7.34375 24 7.34375C19.6239 7.34375 15.4271 9.04592 12.3327 12.0758C9.23839 15.1057 7.5 19.2151 7.5 23.5C7.5 27.7849 9.23839 31.8943 12.3327 34.9242C15.4271 37.9541 19.6239 39.6562 24 39.6562ZM24 44.0625C29.5695 44.0625 34.911 41.8961 38.8492 38.0399C42.7875 34.1837 45 28.9535 45 23.5C45 18.0465 42.7875 12.8163 38.8492 8.96012C34.911 5.1039 29.5695 2.9375 24 2.9375C18.4305 2.9375 13.089 5.1039 9.15076 8.96012C5.21249 12.8163 3 18.0465 3 23.5C3 28.9535 5.21249 34.1837 9.15076 38.0399C13.089 41.8961 18.4305 44.0625 24 44.0625ZM14.25 27.1719C14.25 26.5876 14.4871 26.0272 14.909 25.614C15.331 25.2009 15.9033 24.9688 16.5 24.9688H31.5C32.0967 24.9688 32.669 25.2009 33.091 25.614C33.5129 26.0272 33.75 26.5876 33.75 27.1719C33.75 29.187 32.46 31.0464 30.828 32.3008C29.118 33.6138 26.754 34.5156 24 34.5156C21.246 34.5156 18.882 33.6138 17.172 32.3008C15.543 31.0464 14.25 29.187 14.25 27.1719Z" fill="black"/>
<path d="M18.9018 20.5625H15.8417C14.1892 20.5625 12.7408 19.3288 12.5368 17.7621L12.0267 14.8344C11.9145 14.0021 12.1593 13.2188 12.6898 12.6508C13.2202 12.0829 13.9954 11.75 14.8216 11.75H20.9419C21.7885 11.75 22.5535 12.0927 23.0432 12.69C23.1554 12.8369 23.2574 12.9935 23.339 13.1698C23.7776 13.0817 24.2264 13.0817 24.6548 13.1698C24.7364 12.9935 24.8384 12.8369 24.9608 12.69C25.4403 12.0927 26.2053 11.75 27.0621 11.75H33.1824C34.0086 11.75 34.7838 12.0829 35.3142 12.6508C35.8345 13.2188 36.0793 14.0021 35.9773 14.7952L35.457 17.8013C35.2632 19.3288 33.8046 20.5625 32.1623 20.5625H29.1022C27.5109 20.5625 25.9605 19.3973 25.5729 17.9188L24.6548 15.2652C24.2672 14.991 23.7266 14.991 23.339 15.2652L22.4005 17.9873C22.0333 19.4071 20.4931 20.5625 18.9018 20.5625Z" fill="black"/>
<path fill-rule="evenodd" clip-rule="evenodd" d="M39.576 25.8504C39.3525 25.8559 39.1401 25.9513 38.9844 26.1161C38.8286 26.2809 38.7419 26.5019 38.7428 26.7317V36.8972C38.0892 36.5092 37.3294 36.3538 36.5811 36.455C35.8329 36.5563 35.138 36.9086 34.6043 37.4572C34.0706 38.0059 33.7279 38.7203 33.6294 39.4896C33.5308 40.2589 33.6818 41.0402 34.0591 41.7122C34.4364 42.3842 35.0188 42.9095 35.716 43.2066C36.4133 43.5036 37.1863 43.5558 37.9154 43.3551C38.6444 43.1544 39.2887 42.712 39.7482 42.0965C40.2078 41.481 40.457 40.7267 40.4571 39.9508V31.2967L44.6023 32.007C44.725 32.028 44.8507 32.0212 44.9707 31.9872C45.0906 31.9532 45.2019 31.8928 45.2969 31.8101C45.3918 31.7274 45.4681 31.6244 45.5204 31.5084C45.5728 31.3923 45.5999 31.266 45.6 31.138V27.6129C45.5999 27.4043 45.5278 27.2025 45.3966 27.0434C45.2654 26.8843 45.0835 26.7782 44.8834 26.744L39.7568 25.8654C39.6972 25.8538 39.6366 25.8488 39.576 25.8504Z" fill="#FFD666"/>
<path fill-rule="evenodd" clip-rule="evenodd" d="M5.976 2.93779C5.75257 2.94332 5.54016 3.03872 5.38439 3.2035C5.22861 3.36827 5.1419 3.58928 5.14286 3.81906V13.9846C4.48926 13.5966 3.72941 13.4412 2.98115 13.5424C2.23289 13.6437 1.53804 13.996 1.00435 14.5446C0.470654 15.0933 0.127947 15.8077 0.0293744 16.577C-0.0691984 17.3463 0.0818709 18.1276 0.459154 18.7996C0.836437 19.4717 1.41885 19.9969 2.11607 20.294C2.8133 20.591 3.58637 20.6432 4.3154 20.4425C5.04443 20.2418 5.68867 19.7994 6.14823 19.1839C6.60779 18.5684 6.85698 17.8142 6.85714 17.0382V8.38407L11.0023 9.09438C11.125 9.11536 11.2507 9.10861 11.3707 9.07461C11.4906 9.04061 11.6019 8.98017 11.6969 8.89748C11.7918 8.8148 11.8681 8.71185 11.9205 8.5958C11.9728 8.47974 11.9999 8.35337 12 8.22544V4.70034C11.9999 4.49174 11.9278 4.28993 11.7966 4.13082C11.6654 3.97171 11.4836 3.86561 11.2834 3.8314L6.15686 2.95277C6.09726 2.94121 6.03663 2.93619 5.976 2.93779Z" fill="#FFD666"/>
</svg>
