<svg width="47" height="47" viewBox="0 0 47 47" fill="none" xmlns="http://www.w3.org/2000/svg">
<path fill-rule="evenodd" clip-rule="evenodd" d="M23.5 39.6562C27.7849 39.6562 31.8943 37.9541 34.9242 34.9242C37.9541 31.8943 39.6562 27.7849 39.6562 23.5C39.6562 19.2151 37.9541 15.1057 34.9242 12.0758C31.8943 9.04592 27.7849 7.34375 23.5 7.34375C19.2151 7.34375 15.1057 9.04592 12.0758 12.0758C9.04592 15.1057 7.34375 19.2151 7.34375 23.5C7.34375 27.7849 9.04592 31.8943 12.0758 34.9242C15.1057 37.9541 19.2151 39.6562 23.5 39.6562ZM23.5 44.0625C28.9535 44.0625 34.1837 41.8961 38.0399 38.0399C41.8961 34.1837 44.0625 28.9535 44.0625 23.5C44.0625 18.0465 41.8961 12.8163 38.0399 8.96012C34.1837 5.1039 28.9535 2.9375 23.5 2.9375C18.0465 2.9375 12.8163 5.1039 8.96012 8.96012C5.1039 12.8163 2.9375 18.0465 2.9375 23.5C2.9375 28.9535 5.1039 34.1837 8.96012 38.0399C12.8163 41.8961 18.0465 44.0625 23.5 44.0625ZM13.9531 27.1719C13.9531 26.5876 14.1852 26.0272 14.5984 25.614C15.0116 25.2009 15.5719 24.9688 16.1562 24.9688H30.8437C31.4281 24.9688 31.9884 25.2009 32.4016 25.614C32.8148 26.0272 33.0469 26.5876 33.0469 27.1719C33.0469 29.187 31.7838 31.0464 30.1857 32.3008C28.5114 33.6138 26.1966 34.5156 23.5 34.5156C20.8034 34.5156 18.4886 33.6138 16.8142 32.3008C15.2192 31.0464 13.9531 29.187 13.9531 27.1719Z" fill="black"/>
</svg>
