<svg width="48" height="47" viewBox="0 0 48 47" fill="none" xmlns="http://www.w3.org/2000/svg">
<path d="M17.0999 28.475C16.3649 28.475 15.7433 28.2209 15.2351 27.7127C14.7269 27.2045 14.4735 26.5836 14.4749 25.85C14.4763 25.1164 14.7304 24.4948 15.2372 23.9852C15.744 23.4756 16.3649 23.2222 17.0999 23.225C17.8349 23.2278 18.4565 23.4819 18.9647 23.9873C19.4729 24.4927 19.7263 25.1136 19.7249 25.85C19.7235 26.5864 19.4694 27.208 18.9626 27.7148C18.4558 28.2216 17.8349 28.475 17.0999 28.475ZM29.6999 28.475C28.9649 28.475 28.3433 28.2209 27.8351 27.7127C27.3269 27.2045 27.0735 26.5836 27.0749 25.85C27.0763 25.1164 27.3304 24.4948 27.8372 23.9852C28.344 23.4756 28.9649 23.2222 29.6999 23.225C30.4349 23.2278 31.0565 23.4819 31.5647 23.9873C32.0729 24.4927 32.3263 25.1136 32.3249 25.85C32.3235 26.5864 32.0694 27.208 31.5626 27.7148C31.0558 28.2216 30.4349 28.475 29.6999 28.475ZM23.3999 40.55C28.0899 40.55 32.0624 38.9225 35.3174 35.6675C38.5724 32.4125 40.1999 28.44 40.1999 23.75C40.1999 22.91 40.1474 22.0966 40.0424 21.3098C39.9374 20.523 39.7449 19.7614 39.4649 19.025C38.7299 19.2 37.9949 19.3316 37.2599 19.4198C36.5249 19.508 35.7549 19.5514 34.9499 19.55C31.7649 19.55 28.7549 18.8675 25.9199 17.5025C23.0849 16.1375 20.6699 14.23 18.6749 11.78C17.5549 14.51 15.954 16.8816 13.8722 18.8948C11.7904 20.908 9.3663 22.4214 6.5999 23.435V23.75C6.5999 28.44 8.2274 32.4125 11.4824 35.6675C14.7374 38.9225 18.7099 40.55 23.3999 40.55ZM23.3999 44.75C20.4949 44.75 17.7649 44.1991 15.2099 43.0973C12.6549 41.9955 10.4324 40.4989 8.5424 38.6075C6.6524 36.7161 5.1565 34.4936 4.0547 31.94C2.9529 29.3864 2.40131 26.6564 2.39991 23.75C2.39851 20.8436 2.9501 18.1136 4.0547 15.56C5.1593 13.0064 6.6552 10.7839 8.5424 8.8925C10.4296 7.00111 12.6521 5.50521 15.2099 4.40481C17.7677 3.30441 20.4977 2.75281 23.3999 2.75001C26.3021 2.74721 29.0321 3.29881 31.5899 4.40481C34.1477 5.51081 36.3702 7.00671 38.2574 8.8925C40.1446 10.7783 41.6412 13.0008 42.7472 15.56C43.8532 18.1192 44.4041 20.8492 44.3999 23.75C44.3957 26.6508 43.8441 29.3808 42.7451 31.94C41.6461 34.4992 40.1502 36.7217 38.2574 38.6075C36.3646 40.4933 34.1421 41.9899 31.5899 43.0973C29.0377 44.2047 26.3077 44.7556 23.3999 44.75Z" fill="black"/>
</svg>
