<svg width="21" height="21" viewBox="0 0 21 21" fill="none" xmlns="http://www.w3.org/2000/svg">
<path d="M16.94 4.1326C16.3683 3.5542 15.6404 3.155 14.8453 2.98384C14.0503 2.81267 13.2225 2.87697 12.4635 3.16887C11.7044 3.46077 11.0469 3.9676 10.5713 4.62735C10.0958 5.28711 9.82288 6.07117 9.786 6.8836L14.1848 11.2824C14.9967 11.2455 15.7803 10.9729 16.4398 10.4979C17.0993 10.0229 17.6062 9.3661 17.8984 8.6077C18.1907 7.84931 18.2557 7.0222 18.0855 6.22746C17.9153 5.43273 17.5172 4.70479 16.94 4.1326ZM6.5408 11.5526L3.57 14.5276C3.30754 14.7901 3.1601 15.1462 3.1601 15.5174C3.1601 15.8886 3.30754 16.2447 3.57 16.5072L4.5598 17.497C4.82233 17.7595 5.17837 17.9069 5.5496 17.9069C5.92083 17.9069 6.27686 17.7595 6.5394 17.497L9.5088 14.5276L12.4796 11.5568L9.5102 8.5874L6.5408 11.5526ZM7.5782 14.4744L6.5884 13.4846L9.5102 10.567L10.5 11.5568L7.5782 14.4744Z" fill="black"/>
</svg>
