<svg width="49" height="24" viewBox="0 0 49 24" fill="none" xmlns="http://www.w3.org/2000/svg">
<rect width="49" height="24" rx="6" fill="#FFD666"/>
<path d="M7.717 6.445V14.726H12.02V16H6.833C6.404 16 6.118 15.623 6.118 15.22V6.445H7.717ZM13.9775 12.23V12.945C13.9775 14.323 14.6535 14.843 15.4985 14.843H15.8105C16.6555 14.843 17.3315 14.323 17.3315 12.945V12.23C17.3315 10.852 16.6555 10.332 15.8105 10.332H15.4985C14.6535 10.332 13.9775 10.852 13.9775 12.23ZM18.8655 12.23V12.945C18.8655 15.038 17.5265 16.104 15.9015 16.104H15.4075C13.7825 16.104 12.4435 15.038 12.4435 12.945V12.23C12.4435 10.02 13.8865 9.11 15.4335 9.11H15.8755C17.4225 9.11 18.8655 9.903 18.8655 12.23ZM23.2142 18.002H23.4352C24.4102 18.002 24.9432 17.586 24.9432 16.832V15.402C24.5272 15.87 23.9552 16.078 23.3312 16.078H23.1102C21.4852 16.078 20.3542 15.168 20.3542 13.374V11.866C20.3542 10.345 21.2512 9.084 23.1102 9.084H23.3312C24.0592 9.084 24.5792 9.37 24.9432 9.747V9.149H26.4382V16.767C26.4382 18.431 25.2552 19.25 23.4352 19.25H23.1362C21.9402 19.25 20.8352 18.678 20.3802 18.158L21.1342 17.131C21.6152 17.664 22.5382 18.002 23.2142 18.002ZM23.3572 10.319C22.2522 10.319 21.8752 11.112 21.8752 11.84V13.335C21.8752 14.141 22.2262 14.843 23.3702 14.843C24.3192 14.843 24.9432 14.401 24.9432 13.504V11.71C24.9432 10.982 24.4492 10.319 23.3572 10.319ZM32.362 9.149H33.883V16H32.362V9.149ZM32.31 6.367H33.922V7.953H32.31V6.367ZM37.6353 16H36.1533V9.149H37.6353V9.994C37.9733 9.487 38.5453 9.084 39.5073 9.084H39.7023C41.2883 9.084 42.2373 9.994 42.2373 11.983V16H40.7033V11.944C40.7033 11.138 40.4043 10.371 39.2993 10.371C38.3503 10.371 37.6613 11.151 37.6353 12.087V16Z" fill="black"/>
</svg>
