<svg width="48" height="47" viewBox="0 0 48 47" fill="none" xmlns="http://www.w3.org/2000/svg">
<path d="M14 43.0832C12.9 43.0832 11.9587 42.7 11.176 41.9336C10.3933 41.1673 10.0013 40.2449 10 39.1665V23.4998C10 20.7255 10.742 18.245 12.226 16.0582C13.71 13.8714 15.6347 12.2394 18 11.1623V9.7915C18 8.15956 18.5833 6.77241 19.75 5.63005C20.9167 4.48768 22.3333 3.9165 24 3.9165C25.6667 3.9165 27.0833 4.48768 28.25 5.63005C29.4167 6.77241 30 8.15956 30 9.7915V11.1623C32.3667 12.2394 34.292 13.8714 35.776 16.0582C37.26 18.245 38.0013 20.7255 38 23.4998V39.1665C38 40.2436 37.6087 41.166 36.826 41.9336C36.0433 42.7013 35.1013 43.0845 34 43.0832H14ZM30 31.3332C30.5667 31.3332 31.042 31.1452 31.426 30.7692C31.81 30.3932 32.0013 29.9284 32 29.3748V27.4165C32 26.3394 31.6087 25.4177 30.826 24.6513C30.0433 23.885 29.1013 23.5011 28 23.4998H18C17.4333 23.4998 16.9587 23.6878 16.576 24.0638C16.1933 24.4398 16.0013 24.9046 16 25.4582C15.9987 26.0117 16.1907 26.4772 16.576 26.8545C16.9613 27.2318 17.436 27.4191 18 27.4165H28V29.3748C28 29.9297 28.192 30.3951 28.576 30.7711C28.96 31.1471 29.4347 31.3345 30 31.3332ZM22 9.98734C22.3667 9.92206 22.7 9.8731 23 9.84046C23.3 9.80782 23.6333 9.7915 24 9.7915C24.3667 9.7915 24.7 9.80782 25 9.84046C25.3 9.8731 25.6333 9.92206 26 9.98734V9.7915C26 9.23664 25.808 8.77186 25.424 8.39717C25.04 8.02248 24.5653 7.83448 24 7.83317C23.4347 7.83186 22.96 8.01987 22.576 8.39717C22.192 8.77448 22 9.23925 22 9.7915V9.98734Z" fill="black"/>
</svg>
